<svg width="164" height="72" viewBox="0 0 164 72" fill="none" xmlns="http://www.w3.org/2000/svg">
<path d="M163.26 5.63458C145.498 -2.01583 126.969 4.8921 113.091 17.4109C112.954 17.5363 112.794 17.5989 112.614 17.5989C109.594 17.6428 106.562 17.649 103.517 17.6177C103.51 17.6157 103.504 17.6121 103.498 17.6072C103.493 17.6024 103.489 17.5965 103.487 17.5905C103.485 17.5844 103.485 17.5784 103.487 17.5732C103.489 17.568 103.493 17.5639 103.499 17.5613C109.606 12.0663 116.029 7.73985 122.767 4.58195C135.344 -1.32034 151.347 -2.01583 163.372 5.42781C164.246 5.97293 164.208 6.04185 163.26 5.63458Z" fill="#0065A3"/>
<path d="M153.649 8.3978C144.805 9.0463 135.85 12.9185 128.7 18.2569C128.394 18.4824 128.051 18.5952 127.671 18.5952L122.374 18.6422C122.296 18.6449 122.22 18.6229 122.156 18.5792C122.092 18.5355 122.043 18.4724 122.017 18.3992C121.991 18.3259 121.989 18.2462 122.011 18.1716C122.033 18.0971 122.078 18.0314 122.14 17.9843C132.359 9.87337 147.94 3.69853 160.246 8.87713C160.327 8.91472 160.374 8.97424 160.387 9.0557C160.387 9.08703 160.39 9.11836 160.396 9.14968C160.402 9.21861 160.368 9.2468 160.293 9.23427C158.103 8.73615 155.895 8.23803 153.649 8.3978Z" fill="#8BC43F"/>
<path d="M20.0142 65.3436C7.39947 59.5541 -1.11643 48.1913 0.11884 33.7645C1.46641 17.8622 13.6975 7.84337 29.363 7.72119C29.4816 7.72119 29.5439 7.77758 29.5502 7.89037C29.5564 7.99688 29.5065 8.05954 29.4005 8.07834C17.16 9.78887 7.05322 17.6742 5.30325 30.3435C2.53324 50.3342 20.791 62.1105 38.4591 61.4432C44.6979 61.2051 50.5498 59.8079 56.015 57.2515C57.2877 56.6625 58.5947 56.3805 59.9361 56.4056C63.985 56.4745 67.9997 56.4871 71.98 56.4432C72.6538 56.4369 72.7193 56.6312 72.1765 57.0259C56.8947 68.2948 37.2987 73.2666 20.0142 65.3436Z" fill="#0065A3"/>
<path d="M28.5855 54.7044C25.4599 54.1843 22.8334 53.2538 20.706 51.913C3.96427 41.3772 8.20351 16.067 28.0521 12.2042C28.1894 12.1791 28.3235 12.1917 28.4545 12.2418C28.8226 12.3984 28.8226 12.5519 28.4545 12.7023C23.1329 14.8702 19.2804 18.7769 16.8972 24.4223C12.5738 34.6573 16.1299 46.6028 25.6471 52.7401C26.6016 53.3478 27.6216 53.8052 28.7072 54.1123C28.7854 54.1285 28.8539 54.1752 28.8978 54.2422C28.9417 54.3091 28.9573 54.3909 28.9411 54.4694C28.925 54.5479 28.8785 54.6168 28.8118 54.6608C28.7451 54.7049 28.6637 54.7206 28.5855 54.7044Z" fill="#8BC43F"/>
<path d="M42.6521 22.3921H41.1923C40.8563 22.3921 40.584 22.6656 40.584 23.003V24.4504C40.584 24.7878 40.8563 25.0613 41.1923 25.0613H42.6521C42.9881 25.0613 43.2604 24.7878 43.2604 24.4504V23.003C43.2604 22.6656 42.9881 22.3921 42.6521 22.3921Z" fill="#0065A3"/>
<path d="M46.1517 26.6311C46.0394 24.1123 46.6851 22.1292 49.6985 22.3924C49.9667 22.4112 50.1788 22.5271 50.3348 22.7401C50.5656 23.0409 50.6 23.3604 50.4377 23.6988C50.3317 23.9306 50.1601 24.0998 49.923 24.2063C48.9248 24.6762 48.5225 25.5315 48.7159 26.7721C48.772 27.148 48.9904 27.3235 49.3709 27.2984L49.8669 27.2608C49.956 27.2544 50.0455 27.2664 50.1298 27.2959C50.2141 27.3255 50.2915 27.3721 50.3573 27.4329C50.423 27.4936 50.4757 27.5672 50.512 27.6491C50.5484 27.7311 50.5677 27.8196 50.5688 27.9093V28.5672C50.5687 28.6927 50.5187 28.8132 50.4295 28.9029C50.3402 28.9925 50.2189 29.0441 50.0915 29.0465L49.1744 29.0747C48.9061 29.081 48.772 29.2188 48.772 29.4883L48.7907 38.2101C48.7909 38.3015 48.7725 38.3919 48.7365 38.4756C48.7006 38.5594 48.6479 38.6346 48.5819 38.6965C48.5159 38.7584 48.4379 38.8056 48.353 38.8351C48.2682 38.8646 48.1782 38.8758 48.0889 38.868L46.6945 38.7552C46.3014 38.7239 46.1049 38.5109 46.1049 38.1161L46.1236 29.7232C46.1236 29.2846 45.9022 29.0497 45.4592 29.0183C45.01 28.987 44.6856 28.774 44.486 28.3792C44.305 28.0096 44.3955 27.7339 44.7574 27.5522C45.0194 27.4206 45.2908 27.3391 45.5715 27.3078C45.977 27.2639 46.1704 27.0384 46.1517 26.6311Z" fill="#0065A3"/>
<path d="M33.5184 36.8283L38.6092 36.8001C38.6669 36.8 38.7241 36.8118 38.7771 36.8348C38.8301 36.8578 38.8778 36.8915 38.9173 36.9338C38.9568 36.9761 38.9872 37.0261 39.0067 37.0807C39.0261 37.1353 39.0342 37.1934 39.0303 37.2512L38.9648 38.4354C38.9576 38.5443 38.9088 38.6461 38.8286 38.7197C38.7483 38.7933 38.6429 38.8328 38.5343 38.8302L30.7951 38.802C30.6835 38.802 30.5763 38.7574 30.4974 38.6781C30.4184 38.5988 30.374 38.4912 30.374 38.379V23.3038C30.374 23.1916 30.4184 23.084 30.4974 23.0047C30.5763 22.9254 30.6835 22.8809 30.7951 22.8809L32.6948 22.8997C32.8065 22.8997 32.9136 22.9442 32.9926 23.0235C33.0716 23.1028 33.116 23.2104 33.116 23.3226L33.0972 36.4054C33.0972 36.4609 33.1081 36.5159 33.1293 36.5672C33.1505 36.6185 33.1815 36.6651 33.2206 36.7044C33.2597 36.7437 33.3061 36.7748 33.3572 36.7961C33.4083 36.8173 33.4631 36.8283 33.5184 36.8283Z" fill="#0065A3"/>
<path d="M68.9011 32.2795L68.9105 38.3228C68.9105 38.6298 68.7576 38.7864 68.4519 38.7927L66.73 38.8209C66.6555 38.8221 66.5815 38.8085 66.5123 38.7807C66.4431 38.7529 66.3801 38.7116 66.3269 38.6591C66.2738 38.6066 66.2316 38.544 66.2028 38.475C66.174 38.4059 66.1592 38.3318 66.1592 38.257L66.1685 23.4261C66.1685 23.0877 66.337 22.9154 66.6739 22.9092L68.5923 22.881C68.8231 22.881 68.9385 22.9938 68.9385 23.2193L68.873 29.3566C68.8668 29.9205 69.0384 29.9831 69.3877 29.5445L74.0949 23.5953C74.4692 23.1191 74.9621 22.881 75.5735 22.881H76.921C77.5574 22.8747 77.6728 23.1159 77.2673 23.6047L71.7179 30.2588C71.5183 30.4969 71.5152 30.735 71.7086 30.9731L77.5106 38.1724C77.8537 38.5985 77.7508 38.8115 77.2018 38.8115H75.3021C74.8092 38.8115 74.4099 38.6173 74.1042 38.2288L69.3409 32.1291C69.0477 31.7469 68.9011 31.7971 68.9011 32.2795Z" fill="#0065A3"/>
<path d="M55.9027 29.6387C55.9277 31.5873 55.9339 33.583 55.9214 35.6256C55.9214 36.3524 56.277 36.7847 56.9882 36.9226C57.3938 36.9978 57.6184 37.2421 57.662 37.6557C57.687 37.9 57.6589 38.1381 57.5778 38.3699C57.478 38.6519 57.2815 38.8023 56.9882 38.8211C55.6407 38.9276 54.6518 38.5924 54.0217 37.8154C52.749 36.2271 53.2918 31.5466 53.3292 29.6575C53.3292 29.3943 53.2076 29.2126 52.9642 29.1124C52.7584 29.0247 52.5431 28.9683 52.3185 28.9432C52.0503 28.9181 51.8319 28.8022 51.6635 28.5955C51.5262 28.4388 51.4701 28.2571 51.495 28.0503C51.5636 27.5303 51.8537 27.3079 52.3653 27.3831C52.5712 27.4081 52.7646 27.3768 52.9455 27.2891C53.2076 27.1638 53.3292 26.957 53.3105 26.6688L53.245 25.8041C53.2345 25.6351 53.282 25.4678 53.3792 25.3307C53.4764 25.1937 53.6175 25.0953 53.7784 25.0522L55.6781 24.5541C55.9089 24.4914 56.0181 24.5823 56.0056 24.8267L55.884 26.6782C55.8653 27.0353 56.0337 27.2295 56.3893 27.2609C56.5827 27.2797 56.7792 27.3173 56.9789 27.3737C58.445 27.8123 58.4949 28.3542 57.1286 28.9996C56.9539 29.0811 56.7699 29.103 56.5765 29.0654C56.1211 28.9839 55.8965 29.175 55.9027 29.6387Z" fill="#0065A3"/>
<path d="M140.154 29.5729C140.148 31.5842 140.158 33.5829 140.183 35.5692C140.189 36.3085 140.554 36.7534 141.277 36.9038C141.764 37.004 142.007 37.3016 142.007 37.7966C142.014 38.4107 141.717 38.7459 141.118 38.8023C138.769 39.0184 137.497 37.6087 137.544 35.4C137.581 33.3386 137.59 31.4119 137.572 29.6199C137.565 29.2252 137.369 29.0121 136.982 28.9808C136.564 28.9495 136.199 28.8116 135.887 28.5673C135.827 28.5188 135.778 28.4574 135.744 28.3874C135.711 28.3174 135.693 28.2408 135.693 28.1631C135.693 28.0855 135.711 28.0088 135.744 27.9388C135.778 27.8689 135.827 27.8074 135.887 27.759C136.218 27.4896 136.614 27.3423 137.076 27.3173C137.456 27.2922 137.615 27.0917 137.553 26.7157C137.316 25.3373 138.058 24.6449 139.78 24.6387C140.129 24.6387 140.289 24.8141 140.257 25.165L140.126 26.4996C140.109 26.6714 140.156 26.8435 140.258 26.9825C140.36 27.1215 140.51 27.2173 140.679 27.2515C140.853 27.2891 141.028 27.3329 141.203 27.383C142.675 27.8154 142.722 28.3511 141.343 28.9902C141.187 29.0591 141.028 29.0716 140.866 29.0278C140.782 29.0046 140.694 29.0011 140.609 29.0176C140.524 29.0341 140.444 29.0702 140.375 29.123C140.306 29.1758 140.251 29.2439 140.212 29.3219C140.174 29.4 140.154 29.4859 140.154 29.5729Z" fill="#0065A3"/>
<path d="M89.5135 34.2916C89.5287 35.5403 89.0494 36.7439 88.1809 37.6377C87.3125 38.5314 86.1261 39.0421 84.8828 39.0574L83.685 39.072C83.0694 39.0796 82.4582 38.9653 81.8866 38.7357C81.3149 38.506 80.7939 38.1656 80.3532 37.7337C79.9126 37.3018 79.5609 36.787 79.3184 36.2187C79.0758 35.6503 78.9471 35.0396 78.9396 34.4213L78.9076 31.7899C78.8924 30.5411 79.3717 29.3375 80.2402 28.4438C81.1086 27.55 82.295 27.0393 83.5384 27.024L84.7361 27.0094C85.3518 27.0018 85.9629 27.1161 86.5345 27.3458C87.1062 27.5754 87.6272 27.9158 88.0679 28.3477C88.5085 28.7796 88.8602 29.2944 89.1027 29.8627C89.3453 30.4311 89.474 31.0418 89.4815 31.6602L89.5135 34.2916ZM84.1794 37.223C84.9165 37.2269 85.6257 36.79 86.1511 36.0084C86.6764 35.2268 86.9748 34.1646 86.9806 33.0554C86.9834 32.5061 86.9144 31.9619 86.7773 31.4537C86.6403 30.9456 86.438 30.4835 86.1819 30.0937C85.9259 29.704 85.6211 29.3943 85.285 29.1824C84.9488 28.9704 84.588 28.8604 84.223 28.8585C83.4859 28.8546 82.7766 29.2915 82.2513 30.073C81.726 30.8546 81.4276 31.9168 81.4218 33.026C81.419 33.5753 81.488 34.1195 81.6251 34.6277C81.7621 35.1358 81.9644 35.598 82.2205 35.9877C82.4765 36.3774 82.7813 36.6871 83.1174 36.899C83.4535 37.111 83.8144 37.221 84.1794 37.223Z" fill="#0065A3"/>
<path d="M94.2899 28.0218C94.9262 27.2887 95.7965 26.9504 96.9008 27.0068C99.7644 27.1478 101.299 29.1872 101.224 31.9974C101.168 34.1152 101.156 36.2267 101.187 38.332C101.187 38.6892 101.012 38.8583 100.663 38.8395L98.997 38.7643C98.6227 38.7518 98.4418 38.5544 98.4542 38.1722C98.5416 35.6409 98.5353 33.3038 98.4355 31.1609C98.3794 30.077 97.8428 29.3188 96.8259 28.8865C96.6512 28.8113 96.4703 28.8019 96.2831 28.8583C94.9044 29.2844 94.2088 30.2242 94.1963 31.6778L94.1589 38.238C94.1589 38.6265 93.9623 38.8176 93.5693 38.8113L92.1188 38.7925C91.6945 38.7925 91.4824 38.5795 91.4824 38.1534V27.8714C91.4831 27.727 91.5325 27.587 91.6226 27.4743C91.7127 27.3617 91.8381 27.283 91.9784 27.2511C92.752 27.0757 93.3353 27.3169 93.7284 27.9748C93.8906 28.2505 94.0777 28.2662 94.2899 28.0218Z" fill="#0065A3"/>
<path d="M116.187 33.9899C115.239 34.0024 114.996 34.4222 115.457 35.2493C115.663 35.6253 115.829 35.9323 115.953 36.1704C116.178 36.578 116.527 36.9023 116.949 37.0952C117.37 37.2882 117.841 37.3396 118.293 37.2418L121.035 36.6403C121.098 36.6265 121.163 36.6326 121.224 36.6578C121.284 36.6829 121.335 36.726 121.372 36.7813L121.624 37.176C121.955 37.6961 121.837 38.0814 121.269 38.332C114.84 41.1892 110.825 36.208 113.052 29.9861C114.84 25.0331 122.56 26.3207 122.139 32.129C122.046 33.3947 121.341 34.0181 120.024 33.9993C118.776 33.9805 117.498 33.9774 116.187 33.9899ZM115.85 32.1478L119.032 32.0538C119.095 32.0514 119.157 32.0366 119.214 32.0102C119.271 31.9839 119.322 31.9465 119.364 31.9002C119.407 31.854 119.44 31.7997 119.462 31.7406C119.483 31.6815 119.493 31.6187 119.491 31.5557V31.4053C119.469 30.7165 119.243 30.0626 118.863 29.587C118.482 29.1113 117.978 28.8526 117.46 28.8677H117.235C116.978 28.8748 116.725 28.9496 116.491 29.0878C116.257 29.2259 116.046 29.4247 115.871 29.6728C115.697 29.9208 115.561 30.2132 115.472 30.5331C115.384 30.853 115.344 31.1941 115.354 31.5369L115.364 31.6873C115.369 31.8128 115.422 31.9313 115.513 32.0174C115.604 32.1035 115.725 32.1504 115.85 32.1478Z" fill="#0065A3"/>
<path d="M126.81 38.3979V43.2288C126.81 43.5922 126.629 43.7645 126.267 43.7457L124.536 43.6705C124.255 43.6642 124.115 43.517 124.115 43.2288L124.105 27.7776C124.106 27.6517 124.151 27.5304 124.231 27.4355C124.312 27.3407 124.424 27.2787 124.545 27.2607C124.976 27.1917 125.397 27.2293 125.809 27.3735C126.102 27.4737 126.261 27.6773 126.286 27.9844C126.298 28.1535 126.389 28.2475 126.557 28.2663C126.695 28.2851 126.816 28.2506 126.922 28.1629C128.513 26.8847 130.254 26.6153 132.144 27.3547C135.841 28.802 136 36.5276 132.771 38.4261C130.956 39.485 129.162 39.3785 127.39 38.1066C127.003 37.8246 126.81 37.9217 126.81 38.3979ZM132.283 31.4053C132.278 30.7348 132.008 30.0937 131.533 29.6229C131.057 29.1521 130.415 28.8902 129.748 28.8949L129.392 28.8973C128.724 28.902 128.086 29.1729 127.617 29.6503C127.148 30.1277 126.888 30.7726 126.892 31.4431L126.915 34.6762C126.92 35.3467 127.189 35.9879 127.665 36.4587C128.14 36.9295 128.782 37.1913 129.45 37.1867L129.805 37.1842C130.473 37.1795 131.111 36.9087 131.58 36.4312C132.049 35.9538 132.31 35.3089 132.305 34.6384L132.283 31.4053Z" fill="#0065A3"/>
<path d="M42.6707 27.2619L41.2108 27.2594C40.8749 27.2588 40.6021 27.5318 40.6015 27.8692L40.5835 38.2076C40.5829 38.545 40.8548 38.819 41.1907 38.8195L42.6506 38.8221C42.9865 38.8227 43.2593 38.5497 43.2599 38.2123L43.2779 27.8739C43.2785 27.5365 43.0066 27.2625 42.6707 27.2619Z" fill="#0065A3"/>
<path d="M106.681 37.0447H110.443C110.929 37.0385 111.138 37.2766 111.07 37.759L111.004 38.2384C110.948 38.6456 110.714 38.8493 110.302 38.8493L103.602 38.8211C103.435 38.8201 103.271 38.7748 103.128 38.6898C102.984 38.6047 102.865 38.483 102.783 38.337C102.702 38.1909 102.66 38.0257 102.662 37.8582C102.665 37.6906 102.711 37.5267 102.797 37.3831L107.326 29.7515C107.595 29.2941 107.467 29.0654 106.943 29.0654L103.564 29.0372C103.209 29.0372 103.018 28.8586 102.994 28.5015L102.956 27.8906C102.951 27.8135 102.962 27.7361 102.988 27.6634C103.015 27.5906 103.056 27.5239 103.109 27.4675C103.163 27.4111 103.228 27.3662 103.299 27.3355C103.371 27.3048 103.449 27.289 103.527 27.2891L109.965 27.2985C110.151 27.2982 110.334 27.3475 110.495 27.4416C110.655 27.5356 110.788 27.6709 110.88 27.8335C110.971 27.9961 111.018 28.1803 111.015 28.367C111.012 28.5538 110.96 28.7364 110.864 28.8962L106.353 36.462C106.122 36.8505 106.231 37.0447 106.681 37.0447Z" fill="#0065A3"/>
<path d="M90.4532 56.0201C79.2889 64.8923 66.721 70.8228 52.637 71.9976C52.4997 72.0101 52.3812 71.9725 52.2814 71.8848C52.2564 71.866 52.2408 71.841 52.2346 71.8096C52.2221 71.747 52.247 71.7062 52.3094 71.6875C63.7201 68.73 74.0921 63.4888 83.4252 55.9637C83.7953 55.6654 84.2542 55.503 84.726 55.5032H90.2754C90.8369 55.5032 90.8962 55.6755 90.4532 56.0201Z" fill="#8BC43F"/>
</svg>
