<svg width="40" height="40" viewBox="0 0 40 40" fill="none" xmlns="http://www.w3.org/2000/svg">
<rect width="40" height="40" rx="20" fill="#0065A3"/>
<path fill-rule="evenodd" clip-rule="evenodd" d="M21.344 12.0211C20.9963 12.0769 20.694 12.1479 20.469 12.2267C19.2814 12.6424 18.4767 13.5776 18.1869 14.8789C18.1008 15.2652 18.0633 15.872 18.063 16.8829L18.0627 17.7501H16.9732C15.9215 17.7501 15.8808 17.7523 15.8021 17.8142C15.6594 17.9265 15.652 18.0145 15.6624 19.4761L15.6721 20.8427L15.7742 20.9448L15.8764 21.0469L16.9695 21.0566L18.0627 21.0662L18.0629 24.3535C18.063 26.5101 18.0741 27.6805 18.0952 27.7565C18.1129 27.8201 18.1639 27.901 18.2086 27.9362C18.288 27.9985 18.3254 28 19.7779 27.9991C21.3578 27.998 21.3067 28.0028 21.4157 27.8447C21.4651 27.7731 21.469 27.5224 21.469 24.4163V21.0652L22.7324 21.0561C23.9583 21.0472 23.9984 21.045 24.0839 20.9815C24.1324 20.9455 24.1889 20.8682 24.2094 20.8096C24.2578 20.6714 24.2652 18.1647 24.2177 17.9936C24.1991 17.9265 24.1478 17.8509 24.0959 17.8139C24.0091 17.7521 23.965 17.7501 22.7376 17.7501H21.469L21.4695 16.8672C21.4703 15.6069 21.5169 15.4392 21.9234 15.2344L22.1096 15.1407L23.094 15.1251C24.1138 15.1089 24.1425 15.105 24.2662 14.9685C24.3257 14.9027 24.3288 14.8463 24.3381 13.6296C24.3486 12.2694 24.3402 12.1758 24.1984 12.0642C24.1188 12.0016 24.0845 12.0002 22.7694 12.0043C22.0284 12.0067 21.3869 12.0142 21.344 12.0211Z" fill="white"/>
</svg>
