<svg width="40" height="40" viewBox="0 0 40 40" fill="none" xmlns="http://www.w3.org/2000/svg">
<rect width="40" height="40" rx="20" fill="#0065A3"/>
<g clip-path="url(#clip0_3575_3262)">
<path fill-rule="evenodd" clip-rule="evenodd" d="M16.0311 12.0473C14.121 12.3724 12.6019 13.7562 12.1394 15.5924C12.0011 16.1412 12.001 16.1451 12.001 19.9998C12.001 23.8544 12.0011 23.8583 12.1394 24.4071C12.5609 26.0806 13.919 27.4388 15.5925 27.8603C16.1413 27.9986 16.1452 27.9987 19.9999 27.9987C23.8545 27.9987 23.8584 27.9986 24.4073 27.8603C25.7005 27.5346 26.84 26.6316 27.4652 25.4373C27.7065 24.9763 27.9006 24.3779 27.9544 23.9291C27.9662 23.83 27.9884 23.7413 28.0035 23.7319C28.0193 23.7222 28.0311 22.1003 28.0311 19.9648C28.0311 17.7939 28.0195 16.2221 28.0034 16.232C27.9882 16.2414 27.9661 16.1684 27.9543 16.0697C27.8426 15.1378 27.3364 14.1338 26.6088 13.4014C25.8801 12.6678 24.9942 12.2177 23.9385 12.0446C23.5658 11.9835 16.3917 11.9859 16.0311 12.0473ZM16.2191 13.6727C14.9137 13.9089 13.9002 14.9295 13.672 16.2376C13.6015 16.6419 13.6015 23.3576 13.672 23.762C13.9019 25.0798 14.9199 26.0978 16.2377 26.3276C16.642 26.3981 23.3577 26.3981 23.7621 26.3276C25.0799 26.0978 26.0979 25.0798 26.3277 23.762C26.3983 23.3576 26.3983 16.6419 26.3277 16.2376C26.0979 14.9197 25.0799 13.9017 23.7621 13.6719C23.3819 13.6056 16.5861 13.6063 16.2191 13.6727ZM23.9915 14.9102C23.6795 14.9564 23.3859 15.1735 23.2445 15.4624C23.1402 15.6757 23.1286 16.0192 23.2178 16.2567C23.456 16.8909 24.2769 17.0889 24.8075 16.6402C25.1305 16.367 25.2303 15.8878 25.0486 15.4827C24.8644 15.0719 24.4425 14.8435 23.9915 14.9102ZM19.703 15.8623C18.3016 15.9947 17.1275 16.7224 16.4307 17.8904C15.8418 18.8775 15.6981 20.1401 16.0485 21.2493C16.453 22.5299 17.4698 23.5466 18.7504 23.9512C19.5451 24.2022 20.4546 24.2022 21.2494 23.9512C22.53 23.5466 23.5468 22.5299 23.9513 21.2493C24.1413 20.6479 24.1934 19.8527 24.081 19.2693C23.7526 17.5635 22.4875 16.2742 20.8124 15.9385C20.5171 15.8793 19.9417 15.8398 19.703 15.8623ZM12.015 19.9998C12.015 22.0709 12.0188 22.9181 12.0233 21.8826C12.0279 20.847 12.0279 19.1525 12.0233 18.117C12.0188 17.0814 12.015 17.9287 12.015 19.9998ZM19.4488 17.5464C18.9775 17.6489 18.6139 17.8549 18.2345 18.2344C17.7154 18.7534 17.501 19.2696 17.501 19.9998C17.501 20.73 17.7154 21.2461 18.2345 21.7652C18.7535 22.2842 19.2697 22.4987 19.9999 22.4987C20.7301 22.4987 21.2463 22.2842 21.7653 21.7652C22.2844 21.2461 22.4988 20.73 22.4988 19.9998C22.4988 19.2696 22.2844 18.7534 21.7653 18.2344C21.3804 17.8494 21.0208 17.6477 20.5369 17.5451C20.2776 17.4902 19.7043 17.4909 19.4488 17.5464Z" fill="white"/>
</g>
<defs>
<clipPath id="clip0_3575_3262">
<rect width="16" height="16" fill="white" transform="translate(12 12)"/>
</clipPath>
</defs>
</svg>
