<svg width="40" height="40" viewBox="0 0 40 40" fill="none" xmlns="http://www.w3.org/2000/svg">
<rect width="40" height="40" rx="20" fill="#0065A3"/>
<g clip-path="url(#clip0_3575_3268)">
<path fill-rule="evenodd" clip-rule="evenodd" d="M13.4377 12.0472C12.7671 12.2296 12.2157 12.7867 12.0473 13.4518C11.9868 13.6908 11.9868 14.1529 12.0473 14.3918C12.1796 14.9144 12.596 15.4348 13.0669 15.666C13.686 15.9699 14.4125 15.9261 14.9768 15.5508C15.3616 15.295 15.6866 14.8312 15.8006 14.3756C15.8706 14.0956 15.8462 13.5595 15.7511 13.2899C15.674 13.0712 15.5018 12.7903 15.3231 12.5914C15.1662 12.4168 14.8017 12.1802 14.5557 12.0931C14.2981 12.0019 13.6952 11.9772 13.4377 12.0472ZM23.5158 17.0644C22.9961 17.1352 22.4842 17.3115 22.0463 17.5705C21.7009 17.7747 21.2255 18.2224 21.0314 18.5262C20.9541 18.6473 20.8803 18.7471 20.8674 18.7481C20.8545 18.7492 20.8439 18.4265 20.8439 18.0312V17.3125H19.2502H17.6564V22.6562V28H19.3283H21.0002L21.0004 25.039C21.0005 21.9281 21.0067 21.7666 21.144 21.2883C21.3935 20.4182 21.9883 19.9933 22.9529 19.9962C23.7564 19.9985 24.216 20.3019 24.4699 20.9974C24.6589 21.5155 24.6629 21.5903 24.6793 24.9453L24.6942 28H26.3486H28.0031L27.9916 24.4297C27.9789 20.468 27.9829 20.5515 27.7656 19.7031C27.3714 18.1635 26.4867 17.3423 24.9689 17.107C24.5926 17.0487 23.8014 17.0255 23.5158 17.0644ZM12.2502 22.6562V28H13.922H15.5939V22.6562V17.3125H13.922H12.2502V22.6562Z" fill="white"/>
</g>
<defs>
<clipPath id="clip0_3575_3268">
<rect width="16" height="16" fill="white" transform="translate(12 12)"/>
</clipPath>
</defs>
</svg>
