<svg width="40" height="40" viewBox="0 0 40 40" fill="none" xmlns="http://www.w3.org/2000/svg">
<rect width="40" height="40" rx="20" fill="#0065A3"/>
<g clip-path="url(#clip0_3575_3265)">
<path fill-rule="evenodd" clip-rule="evenodd" d="M12.2564 12.1484C12.971 13.1494 18.252 20.8863 18.2399 20.9147C18.2309 20.9358 17.2787 22.05 16.1239 23.3906C14.969 24.7312 13.6036 26.3168 13.0896 26.9141L12.1551 28L12.8666 27.9986L13.5781 27.9972L16.2344 24.9046C18.7237 22.0064 18.8936 21.8157 18.9375 21.871C18.9633 21.9035 19.9195 23.2949 21.0625 24.9632L23.1406 27.9964L25.495 27.9982L27.8493 28L27.711 27.8047C27.41 27.3794 21.5322 18.8153 21.5242 18.7903C21.5195 18.7756 22.81 17.2593 24.392 15.4205C25.974 13.5818 27.2791 12.06 27.2923 12.0388C27.311 12.0084 27.1655 12 26.6181 12H25.92L23.4066 14.9219C22.0242 16.5289 20.8856 17.8433 20.8763 17.8428C20.867 17.8423 19.9594 16.5283 18.8594 14.9227L16.8594 12.0035L14.5049 12.0018L12.1504 12L12.2564 12.1484ZM14.1454 13.1512C14.1771 13.1999 16.3681 16.3358 19.0143 20.1199L23.8254 27H24.8674C25.7412 27 25.9053 26.9931 25.8844 26.9572C25.8706 26.9336 23.68 23.7977 21.0163 19.9884L16.1731 13.0625H15.1304H14.0876L14.1454 13.1512Z" fill="white"/>
</g>
<defs>
<clipPath id="clip0_3575_3265">
<rect width="16" height="16" fill="white" transform="translate(12 12)"/>
</clipPath>
</defs>
</svg>
